<!-- Generated by IcoMoon.io -->
<svg version="1.1" xmlns="http://www.w3.org/2000/svg" width="1024" height="1024" viewBox="0 0 1024 1024">
<title></title>
<g id="icomoon-ignore">
</g>
<path fill="#030303" d="M512 0c-282.784 0-512 229.216-512 512 0 282.752 229.216 512 512 512s512-229.248 512-512c0-282.784-229.216-512-512-512z"></path>
<path fill="#fff" d="M724.608 337.088c-0.512 0.736-44.672 64.544-153.376 108.928 6.4 13.12 12.576 26.496 18.304 39.936 2.048 4.832 4.032 9.536 5.952 14.272 94.592-11.904 187.776 8.096 191.744 8.928-0.64-65.248-24-125.152-62.624-172.064zM612.256 543.68c36.096 99.232 50.784 180.064 53.6 196.672 61.824-41.728 105.728-107.936 117.984-184.672-5.696-1.856-82.72-26.24-171.584-12zM619.488 765.504c-4.064-24.064-20.064-108.384-58.784-209.056-0.608 0.224-1.216 0.384-1.856 0.608-162.432 56.608-215.488 170.72-216.064 172 46.752 36.352 105.376 58.304 169.216 58.304 38.112-0.032 74.432-7.808 107.488-21.856zM550.048 404.992c103.872-38.944 143.104-98.624 143.776-99.648-48.48-42.72-112.128-68.64-181.824-68.64-22.368 0-44.096 2.72-64.864 7.712 4.096 5.536 55.808 74.144 102.912 160.576zM541.888 510.816c-6.912-15.648-14.464-31.328-22.336-46.784-141.76 42.432-277.792 39.392-282.656 39.2-0.064 2.944-0.224 5.792-0.224 8.768 0 70.72 26.688 135.232 70.528 183.936-0.096-0.128 75.264-133.792 223.84-181.856 3.584-1.152 7.232-2.24 10.848-3.264zM827.808 447.104c4.352 21.216 6.592 43.040 6.592 64.928 0 21.824-2.208 43.648-6.592 64.864-4.256 20.768-10.56 41.12-18.784 60.608-8.064 19.104-18.048 37.568-29.728 54.752-11.488 17.088-24.768 33.088-39.328 47.712-14.592 14.528-30.656 27.776-47.712 39.36-17.248 11.616-35.68 21.568-54.784 29.696-19.488 8.224-39.84 14.496-60.576 18.752-21.248 4.384-43.104 6.624-64.928 6.624-21.856 0-43.712-2.208-64.928-6.624-20.736-4.256-41.12-10.56-60.576-18.752-19.104-8.128-37.568-18.112-54.784-29.696-17.056-11.584-33.088-24.832-47.648-39.36-14.592-14.624-27.84-30.624-39.36-47.712-11.616-17.184-21.632-35.648-29.728-54.752-8.256-19.488-14.56-39.84-18.848-60.608-4.288-21.248-6.496-43.072-6.496-64.896 0-21.856 2.208-43.712 6.528-64.928 4.256-20.768 10.56-41.152 18.816-60.576 8.096-19.168 18.112-37.6 29.728-54.784 11.52-17.088 24.768-33.088 39.36-47.712 14.56-14.56 30.624-27.744 47.648-39.296 17.248-11.68 35.68-21.664 54.784-29.792 19.456-8.256 39.84-14.56 60.576-18.784 21.248-4.352 43.104-6.528 64.96-6.528 21.824 0 43.68 2.208 64.928 6.56 20.704 4.224 41.088 10.528 60.576 18.784 19.104 8.096 37.536 18.112 54.784 29.792 17.056 11.552 33.12 24.768 47.712 39.296 14.56 14.624 27.84 30.624 39.328 47.712 11.68 17.184 21.664 35.648 29.728 54.784 8.224 19.424 14.528 39.808 18.752 60.576zM496.768 421.632c-47.648-84.672-98.56-153.76-102.24-158.656-76.8 36.256-134.080 107.008-151.968 192.288 7.264 0.032 122.016 1.472 254.208-33.632z"></path>
</svg>
