<!-- Generated by IcoMoon.io -->
<svg version="1.1" xmlns="http://www.w3.org/2000/svg" width="1024" height="1024" viewBox="0 0 1024 1024">
<title></title>
<g id="icomoon-ignore">
</g>
<path fill="#020202" d="M512 0c-282.784 0-512 229.216-512 512 0 282.752 229.216 512 512 512s512-229.248 512-512c0-282.784-229.216-512-512-512z"></path>
<path fill="#fff" d="M742.599 380.998h-154.501v-38.377h154.515v38.377h-0.013zM485.242 538.369c9.969 15.442 14.951 34.19 14.951 56.201 0 22.762-5.617 43.182-17.044 61.22-7.269 11.936-16.295 22.018-27.141 30.135-12.214 9.387-26.675 15.824-43.298 19.263-16.677 3.445-34.727 5.185-54.171 5.185h-172.789v-383.67h185.29c46.705 0.76 79.816 14.292 99.369 40.866 11.732 16.299 17.546 35.856 17.546 58.588 0 23.456-5.884 42.225-17.73 56.485-6.59 7.995-16.325 15.267-29.214 21.833 19.521 7.146 34.332 18.4 44.232 33.896zM274.233 477.966h81.186c16.684 0 30.171-3.171 40.559-9.51 10.38-6.329 15.561-17.58 15.561-33.734 0-17.846-6.858-29.692-20.608-35.393-11.818-3.961-26.94-6.001-45.289-6.001h-71.41v84.638zM419.356 589.090c0-19.93-8.146-33.708-24.404-41.1-9.092-4.201-21.92-6.349-38.367-6.503h-82.353v102.246h81.078c16.657 0 29.549-2.18 38.853-6.729 16.778-8.364 25.192-24.28 25.192-47.914zM799.924 526.673c1.867 12.552 2.711 30.764 2.369 54.569h-200.096c1.104 27.62 10.638 46.934 28.722 57.987 10.905 6.931 24.127 10.316 39.61 10.316 16.325 0 29.632-4.128 39.876-12.612 5.581-4.497 10.504-10.846 14.76-18.855h73.342c-1.921 16.313-10.752 32.857-26.621 49.67-24.588 26.724-59.071 40.123-103.357 40.123-36.585 0-68.828-11.301-96.814-33.821-27.893-22.599-41.902-59.25-41.902-110.092 0-47.677 12.577-84.169 37.815-109.568 25.332-25.448 58.023-38.114 98.319-38.114 23.885 0 45.416 4.269 64.624 12.852 19.148 8.592 34.974 22.113 47.437 40.697 11.279 16.366 18.533 35.289 21.918 56.845zM727.733 533.832c-1.345-19.098-7.721-33.553-19.202-43.431-11.387-9.906-25.613-14.879-42.586-14.879-18.474 0-32.737 5.316-42.873 15.763-10.204 10.426-16.554 24.602-19.155 42.549l123.817-0.001z"></path>
</svg>
